<svg aria-hidden="true" style="position:absolute;width:0;height:0" xmlns="http://www.w3.org/2000/svg" overflow="hidden"><defs><symbol id="icon-cross" viewBox="0 0 11 11"><path d="M11 1.108L9.892 0 5.5 4.392 1.108 0 0 1.108 4.392 5.5 0 9.892 1.108 11 5.5 6.608 9.892 11 11 9.892 6.608 5.5 11 1.108z"/></symbol><symbol id="icon-send" viewBox="0 0 24 24" fill="none"><path d="M24 0L0 13.5l7.67 2.84L19.5 5.25l-8.998 12.14.007.002-.009-.002V24l4.301-5.018L20.251 21 24 0z" fill="#fff"/></symbol><symbol id="icon-person" viewBox="0 0 18 18"><path d="M9 9a3 3 0 100-6 3 3 0 100 6zm0 1.5c-2.003 0-6 1.005-6 3v.75c0 .412.337.75.75.75h10.5c.412 0 .75-.338.75-.75v-.75c0-1.995-3.998-3-6-3z"/></symbol><symbol id="icon-black-mail" viewBox="0 0 18 18"><path d="M15 3H3c-.825 0-1.492.675-1.492 1.5l-.008 9c0 .825.675 1.5 1.5 1.5h12c.825 0 1.5-.675 1.5-1.5v-9c0-.825-.675-1.5-1.5-1.5zm-.3 3.188L9.398 9.502a.759.759 0 01-.796 0L3.3 6.188a.637.637 0 11.675-1.08L9 8.25l5.025-3.143a.637.637 0 11.675 1.08z"/></symbol><symbol id="icon-phone" viewBox="0 0 18 18"><path d="M13.996 11.123l-1.838-.21a1.44 1.44 0 00-1.187.412l-1.332 1.332a10.888 10.888 0 01-4.769-4.77L6.21 6.55a1.44 1.44 0 00.412-1.187l-.21-1.824a1.448 1.448 0 00-1.44-1.28H3.72c-.818 0-1.498.68-1.448 1.497.384 6.18 5.327 11.116 11.5 11.5.817.05 1.498-.63 1.498-1.448v-1.252a1.434 1.434 0 00-1.274-1.432z"/></symbol><symbol id="icon-check" viewBox="0 0 16 15" fill="none"><rect width="16" height="15" rx="2" fill="#2196F3"/><path d="M3.957 7.752l-.069-.066-.069.065-.888.842-.076.072.076.073 3.496 3.334.069.066.069-.066 7.504-7.158.076-.073-.076-.072-.882-.841-.069-.066-.069.066-6.553 6.246-2.539-2.422z" fill="#fff" stroke="#fff" stroke-width=".2"/></symbol></defs></svg>